<svg width="200" height="152" viewBox="0 0 200 152" fill="none" xmlns="http://www.w3.org/2000/svg">
<path d="M45.7717 151.554C62.6643 151.554 76.3584 149.911 76.3584 147.884C76.3584 145.856 62.6643 144.213 45.7717 144.213C28.8792 144.213 15.1851 145.856 15.1851 147.884C15.1851 149.911 28.8792 151.554 45.7717 151.554Z" fill="#F2F2F2"/>
<path d="M150.042 82.8409L152.716 66.7928L119.321 59.7504L120.692 18.8145H104.349L103.092 56.3282L58.1368 46.8481L59.0756 18.8145H42.7323L41.9081 43.4258L9.06182 36.4993L6.38706 52.5474L41.3556 59.9215L40.2902 91.738L2.67476 83.8058L0 99.854L39.7377 108.234L38.4116 147.832H54.7549L55.9665 111.656L100.922 121.136L100.028 147.832H116.371L117.151 124.558L143.655 130.147L146.329 114.099L117.703 108.063L118.769 76.2461L150.042 82.8409ZM101.474 104.64L56.5189 95.1603L57.5844 63.3438L102.54 72.8238L101.474 104.64Z" fill="#3F3D56"/>
<path opacity="0.2" d="M105.983 104.641L107.048 72.824L62.093 63.3438L62.0613 64.288L102.54 72.824L101.506 103.697L105.983 104.641Z" fill="#02010A"/>
<path opacity="0.2" d="M107.601 56.3284L108.857 18.8145H104.348L103.124 55.3842L107.601 56.3284Z" fill="#02010A"/>
<path opacity="0.2" d="M123.277 76.2461L123.245 77.19L150.042 82.8406L150.195 81.9221L123.277 76.2461Z" fill="#02010A"/>
<path opacity="0.2" d="M46.4166 43.4258L47.2407 18.8145H42.7321L41.9397 42.4818L46.4166 43.4258Z" fill="#02010A"/>
<path opacity="0.2" d="M121.659 124.559L121.628 125.503L143.655 130.148L143.808 129.229L121.659 124.559Z" fill="#02010A"/>
<path opacity="0.2" d="M60.475 111.656L60.4434 112.6L100.922 121.136L100.028 147.833H104.536L105.431 121.136L60.475 111.656Z" fill="#02010A"/>
<path opacity="0.2" d="M40.3214 90.7938L44.7983 91.7378L45.8639 59.9214L10.8953 52.5473L13.4169 37.4175L9.06164 36.499L6.38672 52.5473L41.3553 59.9214L40.3214 90.7938Z" fill="#02010A"/>
<path opacity="0.2" d="M4.50861 99.8539L7.03016 84.7242L2.67471 83.8057L0 99.8539L39.7377 108.234L38.4117 147.832H42.92L44.2463 108.234L4.50861 99.8539Z" fill="#02010A"/>
<path d="M175.8 19.8691H159.216V48.0598H175.8V19.8691Z" fill="#2F2E41"/>
<path d="M179.114 18.6848C177.322 23.9653 174.574 28.7766 168.975 28.7766C163.375 28.7766 159.151 24.2495 158.836 18.6848C158.433 11.5742 163.246 8.56353 168.975 8.59299C175.742 8.62777 181.24 12.4181 179.114 18.6848Z" fill="#2F2E41"/>
<path d="M162.208 58.3105L156.352 80.2372C156.352 80.2372 148.544 82.18 149.381 84.1229C150.217 86.0658 158.583 82.7351 158.583 82.7351L166.112 64.4167L162.208 58.3105Z" fill="#BA8D93"/>
<path d="M166.948 130.474C166.948 130.474 172.247 135.748 168.9 139.356H175.872L171.41 128.254L166.948 130.474Z" fill="#BA8D93"/>
<path d="M172.411 139.18C172.411 139.18 172.411 136.9 170.177 138.268C167.944 139.636 160.747 143.282 160.747 143.282C160.747 143.282 155.783 146.018 162.98 146.473C170.177 146.929 177.126 145.334 177.126 144.422C177.126 143.51 176.382 139.145 176.382 139.145C176.382 139.145 174.893 140.775 172.411 139.18Z" fill="#2F2E41"/>
<path d="M173.362 134.915L173.083 144.074L178.381 144.907V136.025L173.362 134.915Z" fill="#BA8D93"/>
<path d="M168.343 30.8328C172.501 30.8328 175.872 27.4776 175.872 23.3387C175.872 19.1999 172.501 15.8447 168.343 15.8447C164.185 15.8447 160.814 19.1999 160.814 23.3387C160.814 27.4776 164.185 30.8328 168.343 30.8328Z" fill="#BA8D93"/>
<path d="M165.694 29.3056C165.694 29.3056 169.319 37.6322 166.53 40.4078C163.742 43.1833 170.713 40.4078 170.713 40.4078C170.713 40.4078 174.338 35.1342 177.126 34.8567C177.126 34.8567 172.944 32.6363 173.222 26.8076L165.694 29.3056Z" fill="#BA8D93"/>
<path d="M160.814 69.6898L160.256 82.7349C160.256 82.7349 150.217 108.825 154.121 114.931C158.025 121.037 167.227 132.14 167.227 132.14C167.227 132.14 172.525 129.642 172.525 128.254C172.525 128.254 167.227 115.209 162.766 112.156C162.766 112.156 163.044 106.882 167.227 101.331L171.131 114.931L172.804 135.748C172.804 135.748 177.545 137.413 179.218 136.581C179.218 136.581 182.843 123.258 180.333 115.486L179.775 94.1147C179.775 94.1147 187.025 83.5676 177.823 71.0776L176.429 66.6367C176.429 66.6367 162.208 68.0245 160.814 69.6898Z" fill="#2F2E41"/>
<path d="M173.92 142.686C173.92 142.686 173.92 139.911 171.41 141.576C168.9 143.241 160.814 147.682 160.814 147.682C160.814 147.682 155.237 151.013 163.323 151.568C171.41 152.123 179.218 150.18 179.218 149.07C179.218 147.96 178.381 142.644 178.381 142.644C178.381 142.644 176.708 144.629 173.92 142.686Z" fill="#2F2E41"/>
<path d="M167.924 39.5753L176.687 34.5742C176.687 34.5742 189.675 34.8569 188.838 41.5182C188.838 41.5182 186.328 50.1225 185.492 49.2898L183.819 47.6245C183.819 47.6245 177.684 60.1146 177.684 62.6126C177.659 64.2197 177.377 65.8125 176.848 67.3311L161.79 69.5515C161.79 69.5515 163.463 60.1146 160.953 58.4492C158.444 56.7839 157.607 52.343 160.117 48.4572C161.071 46.965 161.9 45.3972 162.596 43.7698C163.034 42.7602 163.669 41.8472 164.464 41.0833C165.259 40.3195 166.198 39.72 167.227 39.3196L167.924 39.5753Z" fill="#C5C4FB"/>
<path d="M187.444 40.6855C187.444 40.6855 202.223 52.6203 199.713 55.1183C197.203 57.6163 183.54 67.6082 183.54 67.6082C183.54 67.6082 182.146 75.9348 179.357 75.6573C176.569 75.3797 179.915 65.3878 179.915 65.3878L191.626 54.2857L185.213 47.6244L187.444 40.6855Z" fill="#BA8D93"/>
<path d="M168.975 10.7173C171.185 10.7173 172.977 8.93375 172.977 6.73364C172.977 4.53354 171.185 2.75 168.975 2.75C166.764 2.75 164.972 4.53354 164.972 6.73364C164.972 8.93375 166.764 10.7173 168.975 10.7173Z" fill="#2F2E41"/>
<path d="M164.172 4.6095C164.172 3.62201 164.541 2.66974 165.206 1.9374C165.872 1.20507 166.787 0.74488 167.774 0.646093C167.642 0.633076 167.509 0.625977 167.374 0.625977C166.312 0.625977 165.294 1.04567 164.544 1.79272C163.793 2.53978 163.372 3.553 163.372 4.6095C163.372 5.66599 163.793 6.67922 164.544 7.42627C165.294 8.17333 166.312 8.59302 167.374 8.59302C167.509 8.59302 167.642 8.58592 167.774 8.5729C166.787 8.47411 165.872 8.01392 165.206 7.28159C164.541 6.54926 164.172 5.59699 164.172 4.6095Z" fill="#2F2E41"/>
<path d="M164.358 15.3421C164.358 15.3421 164.274 14.879 161.006 16.099C157.737 17.319 155.778 26.3218 157.412 31.6083C158.071 33.7387 157.535 35.2748 156.661 36.3495C153.379 40.3826 154.671 46.4402 159.451 48.5141C159.586 48.5727 159.723 48.6306 159.864 48.6878L161.906 49.9077C161.906 49.9077 159.302 46.4972 160.605 42.1345C161.737 38.4174 161.877 34.471 161.011 30.6837C160.861 30.0448 160.692 29.3863 160.499 28.7142C158.865 23.021 159.659 23.6785 165.379 17.9853C165.379 17.9853 168.647 20.4253 171.507 21.6452C174.367 22.8652 176.818 24.0852 174.776 28.1517C172.733 32.2182 167.83 35.8781 171.099 41.1646C174.367 46.4511 174.776 44.4179 174.367 46.4511L173.959 48.4844L176.41 46.0445L174.776 49.2977C174.776 49.2977 180.087 49.2977 181.721 45.2312L182.538 46.0445C182.538 46.0445 185.807 40.3513 179.678 35.0648C179.678 35.0648 177.636 33.8449 180.495 29.7783C183.355 25.7118 181.159 16.9687 177.482 15.3421C173.805 13.7155 164.358 15.3421 164.358 15.3421Z" fill="#2F2E41"/>
<path d="M47.2887 141.765C49.959 146.297 55.3446 148.092 55.3446 148.092C55.3446 148.092 56.4008 142.537 53.7305 138.005C51.0601 133.472 45.6745 131.678 45.6745 131.678C45.6745 131.678 44.6184 137.232 47.2887 141.765Z" fill="#FFC005"/>
<path d="M48.9548 140.183C53.5728 142.729 55.5074 148.044 55.5074 148.044C55.5074 148.044 49.9548 149.231 45.3368 146.685C40.7188 144.139 38.7842 138.824 38.7842 138.824C38.7842 138.824 44.3368 137.637 48.9548 140.183Z" fill="#77B717"/>
<path d="M119.028 138.345C115.927 142.597 116.434 148.228 116.434 148.228C116.434 148.228 121.969 146.964 125.071 142.712C128.172 138.46 127.665 132.83 127.665 132.83C127.665 132.83 122.13 134.093 119.028 138.345Z" fill="#77B717"/>
<path d="M121.152 139.23C120.66 144.462 116.543 148.356 116.543 148.356C116.543 148.356 113.225 143.769 113.717 138.537C114.209 133.306 118.325 129.411 118.325 129.411C118.325 129.411 121.644 133.999 121.152 139.23Z" fill="#77B717"/>
<path d="M185.472 38.4118L184.388 46.6167L185.472 49.2078C185.472 49.2078 190.245 43.378 188.726 40.1392C187.208 36.9004 185.472 38.4118 185.472 38.4118Z" fill="#C5C4FB"/>
</svg>
