<svg width="228" height="166" viewBox="0 0 228 166" fill="none" xmlns="http://www.w3.org/2000/svg">
<path d="M142.466 129.683C166.411 131.931 187.004 112.886 186.621 88.8478L186.543 83.9364C186.135 58.3222 166.755 37.0029 141.287 34.1529C120.09 31.7808 101.403 48.0605 100.856 69.3754L99.8907 106.971C99.621 117.482 107.541 126.405 118.013 127.388L142.466 129.683Z" fill="#3F3D56"/>
<path d="M207.467 63.5708C211.591 63.5708 214.934 60.2456 214.934 56.1438C214.934 52.042 211.591 48.7168 207.467 48.7168C203.343 48.7168 200 52.042 200 56.1438C200 60.2456 203.343 63.5708 207.467 63.5708Z" fill="#FFC005"/>
<path d="M48.8005 33.8472C52.9243 33.8472 56.2674 30.522 56.2674 26.4202C56.2674 22.3184 52.9243 18.9932 48.8005 18.9932C44.6766 18.9932 41.3335 22.3184 41.3335 26.4202C41.3335 30.522 44.6766 33.8472 48.8005 33.8472Z" fill="#77B717"/>
<path d="M32.238 111.11C35.1309 111.11 37.476 108.778 37.476 105.9C37.476 103.023 35.1309 100.69 32.238 100.69C29.3451 100.69 27 103.023 27 105.9C27 108.778 29.3451 111.11 32.238 111.11Z" fill="#6665DD"/>
<path d="M78.6911 42.2588C81.6753 38.9259 82.4567 34.7731 80.4364 32.9834C78.416 31.1937 74.3589 32.4447 71.3747 35.7777C68.3904 39.1106 67.609 43.2634 69.6294 45.0531C71.6498 46.8428 75.7068 45.5918 78.6911 42.2588Z" fill="#151520"/>
<path d="M90.446 75.1462C102.192 75.1462 111.713 65.6754 111.713 53.9926C111.713 42.3097 102.192 32.8389 90.446 32.8389C78.7004 32.8389 69.1787 42.3097 69.1787 53.9926C69.1787 65.6754 78.7004 75.1462 90.446 75.1462Z" fill="#151520"/>
<path d="M28.2956 44.669L8.52788 46.2778C7.74993 46.3411 7.02039 46.679 6.47103 47.2306C5.92167 47.7821 5.58871 48.5109 5.5323 49.2852L4.7942 59.4167C4.76171 59.8626 4.82196 60.3103 4.97119 60.732C5.12042 61.1537 5.35542 61.5403 5.66153 61.8676C5.96764 62.195 6.3383 62.4561 6.75036 62.6346C7.16243 62.8131 7.60706 62.9052 8.05652 62.9052H16.9659V63.3806H20.5503V62.9052H22.4619V63.3806H26.0463V62.9052H27.957C28.7955 62.9052 29.602 62.585 30.2099 62.0105C30.8178 61.4361 31.1807 60.6514 31.2236 59.8184L31.8289 48.0782C31.8528 47.6152 31.7769 47.1524 31.6063 46.721C31.4357 46.2895 31.1743 45.8992 30.8397 45.5764C30.5052 45.2536 30.1051 45.0056 29.6663 44.8491C29.2275 44.6926 28.7602 44.6312 28.2956 44.669Z" fill="#2F2E41"/>
<path d="M40.862 76.6907L12.9039 63.6182L7.88574 71.4617C7.88574 71.4617 22.4234 80.6927 23.1791 81.4443C24.2544 82.5139 35.8439 90.0009 40.3841 88.8125C44.9243 87.6241 42.7737 77.8791 40.862 76.6907Z" fill="#9F616A"/>
<path d="M82.6798 70.9869C82.6798 70.9869 84.1135 78.8305 82.6798 79.7812C81.246 80.7319 92.2381 92.3784 92.2381 92.3784L96.7783 88.3378L98.2121 79.0681C98.2121 79.0681 93.9108 73.1261 95.8225 67.897C97.7341 62.668 82.6798 70.9869 82.6798 70.9869Z" fill="#9F616A"/>
<path d="M86.9809 73.3635C95.4271 73.3635 102.274 66.5531 102.274 58.152C102.274 49.7509 95.4271 42.9404 86.9809 42.9404C78.5346 42.9404 71.6875 49.7509 71.6875 58.152C71.6875 66.5531 78.5346 73.3635 86.9809 73.3635Z" fill="#9F616A"/>
<path d="M91.0433 86.9113C91.0433 86.9113 85.0693 77.8794 81.7239 77.1664C78.3784 76.4534 75.272 76.9287 73.3603 77.1664C71.4486 77.4041 64.9968 75.0273 61.1734 76.691C57.3501 78.3548 61.1734 97.8446 61.1734 97.8446C61.1734 97.8446 56.8722 122.801 58.7838 129.218C60.6955 135.636 58.4558 138.457 57.5 139.17C63.5 142.169 74.5303 143.592 80.0002 144.168C89.5002 145.167 101 144.168 101 144.168C101 144.168 101.557 137.775 103.708 136.111C105.859 134.447 105.62 99.2707 105.62 99.2707L112.788 85.4852C112.788 85.4852 111.594 80.2562 106.576 80.0186C101.557 79.7809 97.0781 77.1605 97.0781 77.1605L93.6718 86.9113H91.0433Z" fill="#C5C4FB"/>
<path d="M63.3242 77.879L61.1735 76.6906C61.1735 76.6906 57.1112 76.9283 56.3944 76.6906C55.6775 76.4529 46.597 73.6008 43.0127 75.2645C39.4283 76.9283 37.0387 74.7892 37.0387 74.7892C37.0387 74.7892 48.7477 84.7716 34.4102 87.8615C34.4102 87.8615 34.6491 89.0499 38.2335 89.7629C41.8179 90.4759 42.5348 91.189 43.9685 92.3774C45.4023 93.5657 48.2698 94.7541 50.1814 95.2295C52.0931 95.7049 58.306 99.7454 59.2619 98.7947C60.2177 97.844 61.8904 94.5165 61.8904 94.5165L63.3242 77.879Z" fill="#77B717"/>
<path d="M108.248 82.8711L112.788 85.4856C112.788 85.4856 118.762 103.074 117.806 107.352C116.851 111.63 115.895 110.917 117.328 113.77C118.762 116.622 120.196 116.859 119.24 119.474C118.284 122.088 118.762 128.506 117.328 131.12C115.895 133.735 108.965 142.054 102.991 128.03C97.017 114.007 108.248 82.8711 108.248 82.8711Z" fill="#77B717"/>
<path d="M116.851 119.236C116.851 119.236 113.506 112.581 112.789 112.106C112.072 111.63 108.726 95.2304 108.726 95.2304C108.726 95.2304 113.983 86.6739 109.204 82.871C109.204 82.871 118.046 70.5116 115.178 70.7493C112.311 70.987 106.576 80.0189 106.576 80.0189C106.576 80.0189 105.261 79.6623 105.739 77.7609C106.217 75.8594 108.009 69.0855 106.576 68.8478C105.142 68.6102 102.274 78.8304 102.274 78.8304C102.274 78.8304 96.42 89.4073 98.2122 93.0913C99.2548 95.1589 100.453 97.1453 101.797 99.0333L105.859 128.506C105.859 128.506 113.744 138.013 116.851 119.236Z" fill="#9F616A"/>
<path d="M26.7633 49.1199C28.215 49.1199 29.3919 48.5878 29.3919 47.9315C29.3919 47.2752 28.215 46.7432 26.7633 46.7432C25.3116 46.7432 24.1348 47.2752 24.1348 47.9315C24.1348 48.5878 25.3116 49.1199 26.7633 49.1199Z" fill="#6C63FF"/>
<path d="M10.7531 71.4619H7.40772C7.40772 71.4619 0 69.0851 0 63.6185C0 58.1518 2.15063 46.9809 8.84147 47.2186C15.5323 47.4563 9.31939 62.1924 9.31939 62.1924L13.3698 63.8364L13.3817 68.8474L10.7531 71.4619Z" fill="#9F616A"/>
<path d="M84.4717 54.9438C91.9942 54.9438 98.0923 51.8578 98.0923 48.051C98.0923 44.2442 91.9942 41.1582 84.4717 41.1582C76.9492 41.1582 70.8511 44.2442 70.8511 48.051C70.8511 51.8578 76.9492 54.9438 84.4717 54.9438Z" fill="#151520"/>
<path d="M102.872 59.2214C103.531 59.2214 104.066 58.0508 104.066 56.6068C104.066 55.1628 103.531 53.9922 102.872 53.9922C102.212 53.9922 101.677 55.1628 101.677 56.6068C101.677 58.0508 102.212 59.2214 102.872 59.2214Z" fill="#9F616A"/>
<path d="M113.47 50.0908C115.904 48.9153 116.288 44.7078 114.328 40.6931C112.367 36.6784 108.806 34.3767 106.372 35.5522C103.938 36.7277 103.554 40.9352 105.514 44.9499C107.475 48.9646 111.036 51.2663 113.47 50.0908Z" fill="#151520"/>
</svg>
