<svg width="229" height="153" viewBox="0 0 229 153" fill="none" xmlns="http://www.w3.org/2000/svg">
<path d="M84.3277 11.3034C85.3665 11.3065 86.3618 11.7193 87.0963 12.4516C87.8308 13.1839 88.2449 14.1763 88.248 15.212V23.0283C88.2449 24.0639 87.8308 25.0563 87.0963 25.7886C86.3618 26.5209 85.3665 26.9337 84.3277 26.9368H76.4881C75.4493 26.9337 74.454 26.5209 73.7195 25.7886C72.985 25.0563 72.5709 24.0639 72.5678 23.0283V15.212C72.5709 14.1763 72.985 13.1839 73.7195 12.4516C74.454 11.7193 75.4493 11.3065 76.4881 11.3034H84.3277ZM84.3277 9.74023H76.4881C75.0338 9.74446 73.6404 10.3223 72.6121 11.3475C71.5838 12.3728 71.0042 13.7621 71 15.212V23.0283C71.0042 24.4782 71.5838 25.8675 72.6121 26.8927C73.6404 27.9179 75.0338 28.4958 76.4881 28.5H84.3277C85.7819 28.4958 87.1754 27.9179 88.2037 26.8927C89.232 25.8675 89.8116 24.4782 89.8158 23.0283V15.212C89.8116 13.7621 89.232 12.3728 88.2037 11.3475C87.1754 10.3223 85.7819 9.74446 84.3277 9.74023Z" fill="#171617"/>
<path fill-rule="evenodd" clip-rule="evenodd" d="M156.788 26.2C156.788 24.2577 156.229 22.3562 155.179 20.7206C154.128 19.085 152.63 17.7837 150.86 16.9709C149.091 16.1581 147.125 15.8677 145.195 16.1342C143.266 16.4007 141.453 17.2128 139.972 18.4745C138.491 19.7362 137.403 21.3945 136.838 23.2533C136.273 25.112 136.254 27.0933 136.783 28.9625C137.312 30.8318 138.368 32.5107 139.824 33.8006C141.28 35.0905 143.077 35.9373 145.001 36.2408V29.1389H142.412V26.2H145.001V23.9603C145.001 21.4135 146.524 20.0055 148.852 20.0055C149.616 20.0162 150.379 20.0826 151.134 20.2043V22.7057H149.848C148.582 22.7057 148.186 23.4889 148.186 24.2938V26.2004H151.013L150.562 29.1393H148.186V36.2417C150.585 35.863 152.768 34.6436 154.345 32.8028C155.922 30.9621 156.788 28.6207 156.788 26.2L156.788 26.2Z" fill="#171617"/>
<path d="M112.587 152.16C129.479 152.16 143.173 150.516 143.173 148.489C143.173 146.462 129.479 144.818 112.587 144.818C95.6941 144.818 82 146.462 82 148.489C82 150.516 95.6941 152.16 112.587 152.16Z" fill="#171617"/>
<path d="M144 143.159C141.77 144.753 139.352 146.069 136.801 147.076C136.132 147.342 135.46 147.59 134.777 147.816H99.9022C99.7612 147.572 99.6238 147.324 99.4827 147.076C96.6535 142.027 94.0878 136.781 93.3601 131.077C92.4875 124.228 94.9345 116.473 100.983 113.108C101.775 112.668 102.614 112.318 103.485 112.064C103.845 111.953 104.213 111.864 104.584 111.787C106.851 111.285 109.212 111.394 111.422 112.104C113.633 112.813 115.614 114.096 117.163 115.822C118.711 117.548 119.77 119.654 120.232 121.923C120.693 124.192 120.54 126.543 119.788 128.733C124.916 123.492 123.958 114.992 122.191 107.889C120.419 100.785 118.274 92.878 121.879 86.4961C123.88 82.9461 127.403 80.7436 131.354 79.8552C131.477 79.8293 131.599 79.8034 131.718 79.7811C136.428 78.83 141.324 79.6853 145.43 82.1762C152.989 86.9219 156.869 95.9283 158.127 104.746C160.158 118.939 155.666 134.775 144 143.159Z" fill="#77B717"/>
<path d="M107.321 116.311C110.113 121.962 111.003 128.361 109.86 134.557C108.998 139.1 107.097 143.384 104.306 147.076C104.117 147.328 103.923 147.576 103.727 147.816H102.349C102.561 147.576 102.769 147.328 102.966 147.076C105.501 143.927 107.339 140.279 108.359 136.371C109.379 132.463 109.558 128.384 108.884 124.403C108.084 119.924 106.234 115.696 103.485 112.065C103.846 111.954 104.213 111.865 104.584 111.787C105.63 113.211 106.546 114.725 107.321 116.311Z" fill="white"/>
<path d="M140.684 120.409C140.386 123.539 139.632 126.609 138.445 129.523C137.352 132.101 135.877 134.501 134.072 136.645C130.385 141.069 125.506 144.396 120.208 146.61C119.822 146.773 119.432 146.928 119.038 147.077C118.355 147.343 117.664 147.587 116.97 147.817H113.209C114.096 147.595 114.98 147.347 115.853 147.077C117.927 146.433 119.951 145.637 121.908 144.696C126.883 142.346 131.202 138.813 134.487 134.409C138.011 129.56 139.567 123.729 139.834 117.803C140.116 111.462 139.288 105.006 137.836 98.8348C136.355 92.5097 134.102 86.3895 131.127 80.6108C131.061 80.48 131.047 80.3287 131.089 80.1881C131.131 80.0476 131.226 79.9286 131.354 79.8557C131.461 79.7849 131.591 79.7584 131.718 79.7816C131.78 79.7975 131.837 79.827 131.886 79.868C131.935 79.909 131.974 79.9605 132 80.0185C132.367 80.733 132.728 81.4474 133.073 82.1693C135.956 88.1875 138.08 94.5388 139.396 101.078C140.669 107.386 141.352 113.986 140.684 120.409Z" fill="white"/>
<path d="M2.98438 137.686L7.07186 139.684L16.7446 124.916L10.7123 121.968L2.98438 137.686Z" fill="#FFB8B8"/>
<path d="M2.5962 135.846L10.6455 139.78L10.6458 139.78C11.3194 140.109 11.9214 140.567 12.4174 141.128C12.9134 141.69 13.2936 142.343 13.5364 143.05C13.7793 143.758 13.8799 144.507 13.8326 145.253C13.7852 145.999 13.5909 146.729 13.2607 147.401L13.179 147.567L0 141.126L2.5962 135.846Z" fill="#2F2E41"/>
<path d="M43.49 144.65L48.042 144.649L50.2073 127.145H43.4893L43.49 144.65Z" fill="#FFB8B8"/>
<path d="M42.3286 141.687L51.2929 141.687H51.2932C52.0435 141.687 52.7863 141.834 53.4795 142.12C54.1726 142.406 54.8023 142.826 55.3328 143.355C55.8633 143.884 56.2841 144.511 56.5712 145.202C56.8583 145.893 57.0061 146.634 57.006 147.382V147.567L42.3289 147.568L42.3286 141.687Z" fill="#2F2E41"/>
<path d="M33.712 23.8403C38.7484 23.8403 42.8312 19.7697 42.8312 14.7483C42.8312 9.7269 38.7484 5.65625 33.712 5.65625C28.6756 5.65625 24.5928 9.7269 24.5928 14.7483C24.5928 19.7697 28.6756 23.8403 33.712 23.8403Z" fill="#FFB8B8"/>
<path d="M42.793 138.875C42.3628 138.875 41.9495 138.709 41.6389 138.412C41.3283 138.116 41.1445 137.711 41.1258 137.282L37.6009 90.5062C37.5968 90.3836 37.5522 90.2658 37.4739 90.1712C37.3957 90.0766 37.2882 90.0105 37.1683 89.9831C37.0484 89.9558 36.9228 89.9688 36.8111 90.0201C36.6994 90.0714 36.6079 90.158 36.5507 90.2666L14.0019 133.186C13.7973 133.571 13.4501 133.861 13.0342 133.995C12.6184 134.129 12.1665 134.096 11.7747 133.903L5.4888 130.769C5.09447 130.572 4.79434 130.227 4.65369 129.81C4.51305 129.393 4.54327 128.937 4.73779 128.542L18.1928 101.36L27.1047 80.9978C30.5445 74.2424 34.1973 70.7611 38.2717 70.355C42.4516 69.9389 46.9155 72.8043 51.9208 79.116L51.9616 79.1675L51.9608 79.2331L51.2182 136.373C51.2194 136.788 51.0645 137.188 50.784 137.495C50.5036 137.801 50.1179 137.992 49.7033 138.029L42.9565 138.868C42.9017 138.873 42.8472 138.876 42.793 138.875Z" fill="#2F2E41"/>
<path d="M24.0873 84.2857C24.5835 83.9805 25.0066 83.5704 25.3267 83.0845C25.6468 82.5986 25.8562 82.0486 25.94 81.4732C26.0239 80.8979 25.9802 80.3113 25.812 79.7546C25.6439 79.1979 25.3553 78.6848 24.9667 78.2513L26.3418 42.0273L19.6586 42.8577L19.0951 78.0984C18.408 78.7976 18.002 79.7237 17.954 80.7013C17.906 81.679 18.2194 82.6402 18.8347 83.4028C19.4501 84.1655 20.3247 84.6766 21.2927 84.8394C22.2608 85.0021 23.2551 84.8051 24.0873 84.2857Z" fill="#FFB8B8"/>
<path d="M28.3152 48.4322L19.3404 47.4154C19.085 47.3865 18.8389 47.303 18.6188 47.1707C18.3988 47.0384 18.2099 46.8603 18.065 46.6487C17.9202 46.437 17.8228 46.1967 17.7795 45.9441C17.7362 45.6916 17.748 45.4327 17.8141 45.1851L20.1311 36.5091C20.2871 35.2074 20.9544 34.0205 21.9867 33.2086C23.0191 32.3967 24.3322 32.026 25.6382 32.1779C26.9442 32.3297 28.1366 32.9916 28.9538 34.0186C29.7711 35.0455 30.1466 36.3537 29.998 37.6562L30.3046 46.6002C30.3133 46.8563 30.2665 47.1112 30.1675 47.3476C30.0685 47.5841 29.9195 47.7965 29.7307 47.9703C29.5419 48.1442 29.3177 48.2754 29.0735 48.3551C28.8292 48.4349 28.5706 48.4611 28.3152 48.4322V48.4322Z" fill="#6C63FF"/>
<path d="M66.9758 25.6294C66.9302 25.8291 66.9005 26.0321 66.8869 26.2365L50.9374 35.4104L47.0606 33.1852L42.9277 38.5796L49.4068 43.1838C49.9302 43.5557 50.5606 43.7484 51.2031 43.7328C51.8457 43.7172 52.4659 43.4942 52.9705 43.0972L69.4172 30.1609C70.1595 30.4348 70.9678 30.477 71.7346 30.2817C72.5015 30.0864 73.1905 29.663 73.7101 29.0678C74.2297 28.4726 74.5552 27.7337 74.6434 26.9496C74.7316 26.1654 74.5782 25.373 74.2037 24.6778C73.8291 23.9827 73.2512 23.4177 72.5467 23.058C71.8423 22.6983 71.0447 22.561 70.26 22.6643C69.4754 22.7676 68.7409 23.1066 68.1542 23.6363C67.5675 24.1659 67.1565 24.8611 66.9758 25.6294Z" fill="#FFB8B8"/>
<path d="M50.4041 35.8446L45.2493 42.5056C45.1026 42.6951 44.9167 42.8509 44.7042 42.9623C44.4917 43.0738 44.2576 43.1382 44.0179 43.1513C43.7781 43.1644 43.5384 43.1258 43.315 43.0382C43.0915 42.9506 42.8896 42.816 42.7231 42.6436L36.8875 36.6018C35.9184 35.8484 35.2886 34.7424 35.1364 33.5266C34.9841 32.3108 35.3218 31.0845 36.0754 30.1166C36.8289 29.1488 37.9367 28.5185 39.1558 28.3641C40.3749 28.2096 41.6057 28.5436 42.578 29.2928L49.8972 33.3733C50.1068 33.4902 50.2885 33.6507 50.4302 33.844C50.5719 34.0372 50.6701 34.2587 50.7183 34.4932C50.7664 34.7277 50.7632 34.9698 50.709 35.203C50.6548 35.4362 50.5508 35.655 50.4042 35.8446H50.4041Z" fill="#C5C4FB"/>
<path d="M54.6093 81.9488L44.7131 33.8892C44.2427 31.6049 42.9026 29.5914 40.9743 28.2716C39.0461 26.9519 36.6798 26.4288 34.3727 26.8121L31.0723 27.3605C29.9258 27.551 28.8281 27.9648 27.842 28.5783C26.8558 29.1917 26.0006 29.9928 25.325 30.9359C24.2515 32.4341 23.5284 34.1532 23.2089 35.9667C22.8893 37.7803 22.9815 39.6421 23.4785 41.4155L28.941 60.9072L24.8871 81.7896C24.8419 82.0212 24.8528 82.2602 24.9191 82.4867C24.9853 82.7132 25.105 82.9207 25.268 83.0917C25.4311 83.2627 25.6328 83.3924 25.8563 83.4698C26.0799 83.5473 26.3188 83.5703 26.553 83.5369C28.5826 83.2474 31.928 82.8342 35.7703 82.609L37.8519 74.6037L38.6985 82.4819C43.4185 82.3502 48.5422 82.5808 52.769 83.6756C53.0135 83.7407 53.2707 83.7426 53.5161 83.6809C53.7615 83.6192 53.9871 83.496 54.1714 83.3231C54.3557 83.1501 54.4927 82.9332 54.5693 82.6926C54.646 82.4521 54.6597 82.1961 54.6093 81.9488Z" fill="#C5C4FB"/>
<path d="M37.2212 12.7252C39.565 14.3245 42.6425 15.9686 45.0364 14.2654C46.6082 13.147 47.1034 11.0761 46.466 9.25876C45.3198 5.99062 42.1705 4.55183 39.1589 3.44897C35.2439 2.01525 30.981 0.874666 26.9394 1.90143C22.8978 2.92818 19.3259 6.82957 20.0555 10.9237C20.6423 14.2162 23.7573 16.9558 23.3151 20.2706C22.87 23.6067 19.107 25.3627 15.7848 25.959C12.4626 26.5552 8.74504 26.7468 6.35753 29.1259C3.31183 32.1609 4.0724 37.5857 6.93828 40.79C9.80417 43.9944 14.1289 45.4469 18.3197 46.4344C23.8721 47.7426 29.8775 48.4302 35.1509 46.259C40.4243 44.0877 44.528 38.243 43.0004 32.7624C42.3551 30.4474 40.8351 28.4909 39.366 26.5861C37.897 24.6814 36.4094 22.6896 35.8491 20.3527C35.3821 18.4053 35.7277 16.1443 37.023 14.6835C37.2586 14.4279 37.4068 14.1043 37.4465 13.7594C37.4861 13.4144 37.4151 13.0658 37.2437 12.7636L37.2212 12.7252Z" fill="#2F2E41"/>
<path d="M85.5039 15.2119C85.1929 15.2112 84.8949 15.0875 84.6754 14.8679C84.4558 14.6483 84.3327 14.3508 84.333 14.0407C84.3333 13.7307 84.4571 13.4334 84.6772 13.2143C84.8972 12.9952 85.1955 12.8721 85.5065 12.8721C85.8175 12.8721 86.1157 12.9952 86.3358 13.2143C86.5558 13.4334 86.6796 13.7307 86.6799 14.0407C86.6803 14.3508 86.5571 14.6483 86.3376 14.8679C86.118 15.0875 85.82 15.2112 85.509 15.2119C85.5073 15.2119 85.5056 15.2119 85.5039 15.2119Z" fill="#171617"/>
<path d="M80.4076 15.9929C81.0278 15.9929 81.6342 16.1762 82.1499 16.5198C82.6656 16.8634 83.0676 17.3517 83.305 17.9231C83.5423 18.4944 83.6044 19.1231 83.4834 19.7296C83.3624 20.3362 83.0637 20.8933 82.6251 21.3306C82.1865 21.7679 81.6277 22.0657 81.0194 22.1863C80.4111 22.307 79.7805 22.245 79.2074 22.0084C78.6344 21.7717 78.1446 21.371 77.8 20.8568C77.4554 20.3426 77.2715 19.738 77.2715 19.1196C77.2715 18.2904 77.6019 17.495 78.19 16.9087C78.7781 16.3223 79.5758 15.9929 80.4076 15.9929ZM80.4076 14.4297C79.4772 14.4297 78.5678 14.7047 77.7942 15.2201C77.0206 15.7354 76.4177 16.4679 76.0617 17.3249C75.7056 18.1818 75.6125 19.1248 75.794 20.0346C75.9755 20.9443 76.4235 21.78 77.0814 22.4359C77.7392 23.0918 78.5774 23.5385 79.4899 23.7195C80.4023 23.9004 81.3481 23.8075 82.2077 23.4526C83.0672 23.0976 83.8019 22.4965 84.3187 21.7252C84.8356 20.954 85.1115 20.0472 85.1115 19.1196C85.1115 17.8758 84.6159 16.6829 83.7338 15.8033C82.8516 14.9238 81.6551 14.4297 80.4076 14.4297V14.4297Z" fill="#171617"/>
<path d="M186.408 142.905L181.978 141.864L183.895 124.33L190.434 125.866L186.408 142.905Z" fill="#FFB8B8"/>
<path d="M186.526 147.452L172.24 144.096L172.282 143.916C172.454 143.188 172.768 142.501 173.207 141.894C173.645 141.287 174.199 140.772 174.837 140.378C175.475 139.985 176.185 139.72 176.925 139.6C177.666 139.48 178.423 139.507 179.153 139.678L179.153 139.678L187.878 141.728L186.526 147.452Z" fill="#2F2E41"/>
<path d="M203.673 143.053H199.121L196.956 125.548L203.674 125.548L203.673 143.053Z" fill="#FFB8B8"/>
<path d="M204.834 147.453L190.157 147.452V147.267C190.157 146.519 190.304 145.778 190.592 145.087C190.879 144.396 191.299 143.768 191.83 143.239C192.36 142.711 192.99 142.291 193.683 142.005C194.376 141.719 195.119 141.571 195.87 141.571H195.87L204.834 141.572L204.834 147.453Z" fill="#2F2E41"/>
<path d="M228.258 73.8243C228.563 73.3288 228.755 72.7726 228.821 72.195C228.887 71.6174 228.825 71.0323 228.64 70.4811C228.454 69.9298 228.15 69.4258 227.748 69.0045C227.347 68.5832 226.857 68.2548 226.314 68.0426L212.987 34.3477L205.572 38.8353L221.004 70.5452C220.707 71.4781 220.763 72.4873 221.162 73.3815C221.561 74.2757 222.276 74.9929 223.17 75.3971C224.064 75.8013 225.076 75.8644 226.014 75.5746C226.951 75.2847 227.75 74.6619 228.258 73.8243Z" fill="#FFB8B8"/>
<path d="M215.819 39.9201L207.348 43.0463C207.107 43.1353 206.85 43.1714 206.594 43.1522C206.337 43.133 206.088 43.059 205.863 42.9352C205.638 42.8114 205.443 42.6406 205.29 42.4346C205.137 42.2287 205.031 41.9923 204.978 41.7415L203.123 32.9558C202.673 31.7238 202.732 30.3644 203.287 29.1757C203.841 27.987 204.846 27.0659 206.08 26.6145C207.314 26.163 208.678 26.2179 209.872 26.7673C211.066 27.3166 211.992 28.3155 212.449 29.5449L216.767 37.3907C216.89 37.6153 216.964 37.8639 216.982 38.1195C217.001 38.3751 216.964 38.6316 216.874 38.8716C216.784 39.1117 216.643 39.3296 216.461 39.5105C216.279 39.6914 216.06 39.8311 215.819 39.9201V39.9201Z" fill="#FFC005"/>
<path d="M203.371 136.769C203.349 136.769 203.327 136.768 203.304 136.767L196.852 136.51C196.416 136.495 196.004 136.31 195.703 135.994C195.403 135.678 195.24 135.257 195.248 134.823L195.743 99.2857C195.745 99.1427 195.692 99.0045 195.595 98.8998C195.497 98.795 195.363 98.7318 195.22 98.7234C195.076 98.7149 194.936 98.7618 194.826 98.8543C194.717 98.9467 194.648 99.0777 194.633 99.2199L190.89 134.796C190.851 135.158 190.694 135.498 190.444 135.763C190.193 136.028 189.863 136.205 189.503 136.265L189.48 136.269L183.423 135.794C183.185 135.831 182.941 135.815 182.709 135.748C182.477 135.681 182.262 135.565 182.079 135.408C181.896 135.25 181.75 135.055 181.65 134.836C181.551 134.617 181.5 134.379 181.501 134.138L181.863 73.8809L211.585 75.7563L205.032 135.285C204.986 135.692 204.791 136.068 204.485 136.342C204.179 136.615 203.782 136.767 203.371 136.769Z" fill="#2F2E41"/>
<path d="M197.938 21.2788C202.974 21.2788 207.057 17.2082 207.057 12.1868C207.057 7.16537 202.974 3.09473 197.938 3.09473C192.902 3.09473 188.819 7.16537 188.819 12.1868C188.819 17.2082 192.902 21.2788 197.938 21.2788Z" fill="#FFB8B8"/>
<path d="M210.107 78.4097C210.065 78.4097 210.023 78.4082 209.981 78.4053L182.511 76.4015C182.084 76.3705 181.686 76.1772 181.397 75.8615C181.109 75.5458 180.954 75.1318 180.963 74.705L181.687 40.3138C181.639 38.2036 182.022 36.1058 182.815 34.1487C183.608 32.1915 184.793 30.4162 186.298 28.9315C187.802 27.4467 189.595 26.2837 191.566 25.5137C193.537 24.7436 195.645 24.3827 197.761 24.4529C199.877 24.5232 201.956 25.0232 203.872 25.9224C205.787 26.8215 207.498 28.1009 208.901 29.6822C210.303 31.2635 211.367 33.1134 212.027 35.1188C212.688 37.1242 212.931 39.2429 212.741 41.3452C212.261 46.6455 211.879 69.8009 211.773 76.7713C211.766 77.2078 211.588 77.6241 211.276 77.9305C210.965 78.237 210.545 78.4091 210.107 78.4097Z" fill="#C5C4FB"/>
<path d="M161.154 22.3969C161.2 22.5967 161.23 22.7997 161.243 23.0041L177.193 32.1778L181.069 29.9527L185.202 35.347L178.723 39.9511C178.2 40.3231 177.57 40.5157 176.927 40.5001C176.284 40.4845 175.664 40.2615 175.16 39.8646L158.713 26.9284C157.971 27.2023 157.162 27.2445 156.395 27.0492C155.629 26.8539 154.94 26.4305 154.42 25.8353C153.9 25.2401 153.575 24.5013 153.487 23.7171C153.398 22.9329 153.552 22.1405 153.926 21.4454C154.301 20.7503 154.879 20.1853 155.583 19.8256C156.288 19.4659 157.085 19.3286 157.87 19.4319C158.655 19.5352 159.389 19.8742 159.976 20.4038C160.563 20.9335 160.974 21.6287 161.154 22.3969Z" fill="#FFB8B8"/>
<path d="M177.412 31.2609C177.46 31.0264 177.558 30.8049 177.7 30.6116C177.842 30.4184 178.023 30.2579 178.233 30.1411L185.552 26.0607C186.525 25.3129 187.755 24.9799 188.973 25.1349C190.191 25.2898 191.298 25.9199 192.051 26.8872C192.805 27.8544 193.142 29.0799 192.991 30.295C192.839 31.5101 192.211 32.6157 191.243 33.3696L185.407 39.4114C185.241 39.5838 185.039 39.7184 184.815 39.806C184.592 39.8937 184.352 39.9322 184.112 39.9191C183.873 39.906 183.638 39.8416 183.426 39.7302C183.213 39.6187 183.028 39.463 182.881 39.2734L177.726 32.6124C177.579 32.4229 177.475 32.2041 177.421 31.9708C177.367 31.7376 177.364 31.4954 177.412 31.2609Z" fill="#FFC005"/>
<path d="M202.651 19.385C201.247 19.3746 199.869 19.0098 198.645 18.3247C197.422 17.6395 196.392 16.6564 195.653 15.467C195.572 15.3416 195.133 14.6988 194.625 13.9548C193.197 11.8639 192.862 11.3664 192.834 11.2934C192.447 10.2993 191.22 9.91535 190.259 9.76822C190.08 9.74074 189.898 9.71652 189.716 9.69194C188.362 9.51118 186.963 9.32428 186.195 7.84103C185.632 6.75254 184.712 2.32011 185.419 1.23704C186.305 -0.121493 188.007 0.319543 189.653 0.746481C190.706 1.01905 191.795 1.30139 192.662 1.12136C196.423 0.341234 200.686 -0.543007 204.45 1.74279C207.446 3.56153 209.249 6.99655 209.153 10.7074C209.051 14.6923 207.308 17.8377 204.491 19.1218L203.904 19.2921L203.574 19.3326C203.267 19.3674 202.959 19.3849 202.651 19.385Z" fill="#2F2E41"/>
</svg>
